<svg xmlns="http://www.w3.org/2000/svg" viewBox="0 0 122.69 35.72"><defs><style>.cls-1{fill:#eb645b;}.cls-2{fill:#fff;}.cls-3{fill:none;stroke:#eb645b;stroke-miterlimit:10;stroke-width:0.37px;}</style></defs><g id="레이어_2" data-name="레이어 2"><g id="레이어_1-2" data-name="레이어 1"><rect class="cls-1" x="48.08" width="26.53" height="13.26" rx="6.63"/><path class="cls-2" d="M59.19,4.84v.28H58v2h.52l.31,0,.3,0,.3-.05,0,.28a4.53,4.53,0,0,1-.62.07c-.19,0-.41,0-.63,0h-.53V4.84ZM60,5.91h.59V4.45h.31v4h-.31V6.19H60v2.1h-.31V4.54H60Z"/><path class="cls-2" d="M62.59,7.65v-1h-.7V6.41h.62V5.06h-.58V4.8h2.85v.26H64.2V6.41h.62v.26h-.7v1h1.09v.27H61.5V7.65Zm.23-1.24h1.07V5.06H62.82Zm.07,1.24h.92v-1h-.92Z"/><rect class="cls-1" x="32.05" y="22.45" width="26.53" height="13.26" rx="6.63"/><path class="cls-2" d="M41.14,28.62v.26h-1.7v.46h1.15v.94H38.28v.43h2.43V31H38V30h2.3V29.6H38v-.26h1.17v-.46H37.42v-.26ZM40.58,27v1.23H38V27Zm-2.29,1h2v-.7h-2Z"/><path class="cls-2" d="M45.16,29.36v.27h-1v1.31h-.31V29.63H42.75v1.31h-.31V29.63h-1v-.27Zm-.56-2.24v1H42.3v.5h2.39v.27H42v-1h2.3v-.5H42v-.27Z"/><path class="cls-2" d="M49.18,29.34v.26H47.49V31h-.32V29.6h-1.7v-.26Zm-.54-2.28V28.8H46V27.06h.3v.61h2v-.61Zm-.31,1.48v-.6h-2v.6Z"/><path class="cls-2" d="M50.22,29a1.42,1.42,0,0,0,.17-.21,1.18,1.18,0,0,0,.1-.19,1.46,1.46,0,0,0,0-.2c0-.07,0-.15,0-.24V27.2h.32v.93a1.62,1.62,0,0,0,0,.23,1.13,1.13,0,0,0,0,.18l.08.17.14.18c.09.11.2.22.33.35l.44.42-.2.21-.39-.37L51,29.18,50.81,29a1.37,1.37,0,0,1-.1-.14h0s0,0,0,.07a.61.61,0,0,1-.07.1,1.47,1.47,0,0,0-.1.13l-.1.11-.14.15-.18.18-.19.19-.2.18-.21-.22.41-.37Q50.07,29.17,50.22,29Zm2.62,2h-.31V28.47h-1v-.28h1V26.91h.31Z"/><rect class="cls-1" y="22.45" width="26.53" height="13.26" rx="6.63"/><path class="cls-2" d="M1.51,29l.6-.27a3.92,3.92,0,0,0,.42-.22,1.57,1.57,0,0,0,.27-.19.65.65,0,0,0,.15-.2A.57.57,0,0,0,3,27.93a2.13,2.13,0,0,0,0-.27v-.22H1.65v-.28H3.34v.53a1.58,1.58,0,0,1-.06.47.79.79,0,0,1-.23.37,2.75,2.75,0,0,1-.52.34c-.23.11-.52.25-.89.41Zm2,.34a1.84,1.84,0,0,1,.47.06,1.13,1.13,0,0,1,.39.15.67.67,0,0,1,.26.24.48.48,0,0,1,.1.31v.17a.5.5,0,0,1-.1.31.67.67,0,0,1-.26.24A1.13,1.13,0,0,1,4,31a1.84,1.84,0,0,1-.47.06A1.78,1.78,0,0,1,3,31a1.13,1.13,0,0,1-.39-.15.64.64,0,0,1-.27-.24.5.5,0,0,1-.1-.31v-.17a.51.51,0,0,1,.1-.32.71.71,0,0,1,.27-.24A1.38,1.38,0,0,1,3,29.43,1.78,1.78,0,0,1,3.5,29.37Zm0,1.42a1.87,1.87,0,0,0,.34,0l.3-.1a.64.64,0,0,0,.2-.16.28.28,0,0,0,.08-.21v-.15a.28.28,0,0,0-.08-.21.64.64,0,0,0-.2-.16,2.11,2.11,0,0,0-.3-.1,1.87,1.87,0,0,0-.34,0,2.07,2.07,0,0,0-.35,0l-.29.1a.58.58,0,0,0-.21.16.32.32,0,0,0-.08.21v.15a.32.32,0,0,0,.08.21.58.58,0,0,0,.21.16l.29.1A2.07,2.07,0,0,0,3.5,30.79Zm.89-3.26v-.62H4.7v2.38H4.39v-.64H3.52v-.27h.87V27.8h-.8v-.27Z"/><path class="cls-2" d="M8.1,28.93l-.3,0-.3,0-.33,0L6.8,29v.64H6.49V29h-1v-.27h.84l.66,0,.57,0,.55-.05Zm-1.4-.46a1.2,1.2,0,0,1-.38,0A1,1,0,0,1,6,28.28a1,1,0,0,1-.21-.2.5.5,0,0,1-.07-.27v-.16a.46.46,0,0,1,.07-.26A.84.84,0,0,1,6,27.18,1,1,0,0,1,6.32,27,1.2,1.2,0,0,1,6.7,27a1.17,1.17,0,0,1,.38.05,1,1,0,0,1,.31.14.7.7,0,0,1,.21.21.47.47,0,0,1,.08.26v.16a.5.5,0,0,1-.08.27.81.81,0,0,1-.21.2,1,1,0,0,1-.31.14A1.17,1.17,0,0,1,6.7,28.47Zm0-1.22a.75.75,0,0,0-.26,0,.67.67,0,0,0-.21.09.39.39,0,0,0-.15.13.25.25,0,0,0,0,.16v.12a.24.24,0,0,0,0,.16.32.32,0,0,0,.15.13.67.67,0,0,0,.21.09.87.87,0,0,0,.52,0,.63.63,0,0,0,.22-.09A.47.47,0,0,0,7.33,28a.3.3,0,0,0,0-.16v-.12a.33.33,0,0,0,0-.16A.67.67,0,0,0,7,27.29.75.75,0,0,0,6.7,27.25Zm-.25,3.38H8.81v.27H6.14V29.83h.31Zm2-1.29V26.91h.31v3.14H8.41v-.43H7.5v-.28Z"/><path class="cls-2" d="M11.81,27.55h-.92v.65c0,.08,0,.16,0,.22a1.16,1.16,0,0,0,0,.18.6.6,0,0,0,.08.16,1.62,1.62,0,0,0,.13.19l.33.34.43.41-.2.21-.39-.38-.3-.31-.18-.2a1.37,1.37,0,0,1-.1-.14h0a.59.59,0,0,1,0,.08l-.08.11-.1.12-.1.11-.12.13-.17.16-.19.19-.2.19-.21-.21c.14-.12.27-.25.39-.37s.24-.24.34-.35a1.46,1.46,0,0,0,.17-.22.76.76,0,0,0,.09-.18.77.77,0,0,0,.05-.19,1.62,1.62,0,0,0,0-.23v-.67H9.65v-.27h2.16Zm1,3.4h-.32v-4h.32Z"/><path class="cls-2" d="M16.15,28.93l-.3,0-.31,0-.32,0-.37,0v.64h-.31V29h-1v-.27h.84l.67,0,.57,0,.55-.05Zm-1.4-.46a1.17,1.17,0,0,1-.38,0,1,1,0,0,1-.31-.14.81.81,0,0,1-.21-.2.5.5,0,0,1-.07-.27v-.16a.46.46,0,0,1,.07-.26.7.7,0,0,1,.21-.21,1,1,0,0,1,.31-.14,1.17,1.17,0,0,1,.38-.05,1.2,1.2,0,0,1,.38.05,1,1,0,0,1,.31.14.7.7,0,0,1,.21.21.46.46,0,0,1,.07.26v.16a.5.5,0,0,1-.07.27.81.81,0,0,1-.21.2,1,1,0,0,1-.31.14A1.2,1.2,0,0,1,14.75,28.47Zm0-1.22a.71.71,0,0,0-.26,0,.63.63,0,0,0-.22.09.44.44,0,0,0-.14.13.27.27,0,0,0-.06.16v.12a.25.25,0,0,0,.06.16.35.35,0,0,0,.14.13.63.63,0,0,0,.22.09.71.71,0,0,0,.26,0,.75.75,0,0,0,.26,0,.85.85,0,0,0,.22-.09.35.35,0,0,0,.14-.13.25.25,0,0,0,.06-.16v-.12a.27.27,0,0,0-.06-.16.44.44,0,0,0-.14-.13.85.85,0,0,0-.22-.09A.75.75,0,0,0,14.75,27.25Zm-.25,3.38h2.36v.27H14.18V29.83h.32Zm2-1.29V26.91h.3v3.14h-.3v-.43h-.92v-.28Z"/><path class="cls-2" d="M21.15,29.34v.26H19.46V31h-.32V29.6h-1.7v-.26Zm-.54-2.28V28.8H18V27.06h.3v.61h2v-.61Zm-.31,1.48v-.6h-2v.6Z"/><path class="cls-2" d="M22.19,29a1.42,1.42,0,0,0,.17-.21,1.18,1.18,0,0,0,.1-.19,1.46,1.46,0,0,0,.05-.2c0-.07,0-.15,0-.24V27.2h.32v.93a1.62,1.62,0,0,0,0,.23,1.13,1.13,0,0,0,0,.18l.08.17.14.18c.09.11.2.22.33.35l.44.42-.2.21-.39-.37L23,29.18,22.78,29a1.37,1.37,0,0,1-.1-.14h0s0,0,0,.07a.61.61,0,0,1-.07.1,1.47,1.47,0,0,0-.1.13l-.1.11-.14.15a1.53,1.53,0,0,0-.18.18l-.19.19-.2.18-.21-.22.41-.37Q22,29.17,22.19,29Zm2.62,2H24.5V28.47h-1v-.28h1V26.91h.31Z"/><rect class="cls-1" x="64.11" y="22.45" width="26.53" height="13.26" rx="6.63"/><path class="cls-2" d="M69.6,27.31h1.76v.27h-.71v.6a2.26,2.26,0,0,0,0,.27,1.18,1.18,0,0,0,0,.2,1.42,1.42,0,0,0,.08.18,1.82,1.82,0,0,0,.14.19l.26.31.34.35-.2.2s-.1-.1-.15-.15a1.29,1.29,0,0,0-.16-.17,2.09,2.09,0,0,1-.14-.17l-.13-.14-.16-.2-.08-.13h0l-.07.12a1.05,1.05,0,0,1-.15.21l-.28.31-.37.38-.21-.21.2-.19.18-.19.16-.18.12-.14a1.3,1.3,0,0,0,.13-.19.77.77,0,0,0,.08-.19,1.12,1.12,0,0,0,0-.21,2.09,2.09,0,0,0,0-.26v-.6H69.6Zm2.26,1V27h.31v3.76h-.31V28.56h-.72v-.29ZM73,31h-.31v-4H73Z"/><path class="cls-2" d="M75.2,30.11v-.93h.32v.93h1.69v.27H73.5v-.27ZM74,27.27h2.79v.27H75.52v.15a1.19,1.19,0,0,0,0,.29.43.43,0,0,0,.07.2.64.64,0,0,0,.16.17l.26.19.39.23.52.28-.15.24L76.3,29l-.45-.27c-.15-.1-.27-.18-.34-.24a.43.43,0,0,1-.15-.16h0a.43.43,0,0,1-.15.16,3.82,3.82,0,0,1-.34.25l-.45.27-.49.27-.17-.24.53-.28.4-.24.26-.19a.47.47,0,0,0,.15-.17.44.44,0,0,0,.08-.2,2.07,2.07,0,0,0,0-.29v-.15H74Z"/><path class="cls-2" d="M81.24,29.34v.26h-1.7V31h-.31V29.6H77.52v-.26Zm-.55-2.28V28.8H78.07V27.06h.31v.61h2v-.61Zm-.31,1.48v-.6h-2v.6Z"/><path class="cls-2" d="M82.28,29a1.3,1.3,0,0,0,.16-.21.7.7,0,0,0,.1-.19.73.73,0,0,0,0-.2,1.77,1.77,0,0,0,0-.24V27.2h.32v.93a1.62,1.62,0,0,0,0,.23,1.16,1.16,0,0,0,0,.18.51.51,0,0,0,.08.17,1,1,0,0,0,.14.18,4.66,4.66,0,0,0,.32.35l.45.42-.21.21-.39-.37-.31-.32a1.68,1.68,0,0,1-.18-.21.41.41,0,0,1-.1-.14h0a.13.13,0,0,1,0,.07l-.08.1-.1.13-.1.11-.14.15-.18.18-.19.19-.2.18-.21-.22c.15-.13.29-.25.41-.37Zm2.61,2h-.31V28.47h-1v-.28h1V26.91h.31Z"/><rect class="cls-1" x="96.16" y="22.45" width="26.53" height="13.26" rx="6.63"/><path class="cls-2" d="M98.92,30.11V28.56h.32v1.55h2v.27H97.51v-.27Zm1.26-.56c0-.13,0-.27.07-.4s0-.26,0-.39l0-.4c0-.14,0-.28,0-.43v-.37H98v-.27h2.68v.48c0,.18,0,.35,0,.52s0,.31,0,.45,0,.29,0,.43,0,.28-.07.42Z"/><path class="cls-2" d="M101.61,29c.28-.13.5-.24.67-.34a1.55,1.55,0,0,0,.38-.27.75.75,0,0,0,.17-.28,1.92,1.92,0,0,0,0-.38v-.3h-1.15v-.27h1.45v.61a1.35,1.35,0,0,1-.07.48.8.8,0,0,1-.22.34,2,2,0,0,1-.43.31l-.7.35Zm.71.5H105V31h-.31V29.79h-2.32Zm1.7-1.62h.62v-1H105v2.36h-.31V28.16H104v1.1h-.3V27h.3Z"/><path class="cls-2" d="M108.17,29.15l-.45.05-.56,0-.7,0h-.9V29h.88v-.9h.31V29h.43l.36,0,.31,0,.29,0Zm-.37-2v.4a5.49,5.49,0,0,1,0,.58,3.4,3.4,0,0,1-.08.45l-.31,0a3.4,3.4,0,0,0,.08-.46,3.59,3.59,0,0,0,0-.47v-.19h-1.66v-.27Zm-1.23,3.51h2.3v.27h-2.61V29.7h.31Zm2.19-2.45h.6v.28h-.6v1.45h-.31v-3h.31Z"/><path class="cls-2" d="M110.2,29.67h.6l.68,0,.66-.07,0,.27c-.24,0-.48.06-.73.08l-.73,0h-.83V28.4h1.46v-.89h-1.46v-.27h1.77v1.43H110.2ZM112.91,31h-.31v-4h.31Z"/><path class="cls-2" d="M117.31,29.34v.26h-1.69V31h-.32V29.6h-1.7v-.26Zm-.55-2.28V28.8h-2.61V27.06h.3v.61h2v-.61Zm-.3,1.48v-.6h-2v.6Z"/><path class="cls-2" d="M118.35,29a1.42,1.42,0,0,0,.17-.21l.1-.19a.71.71,0,0,0,0-.2,1.66,1.66,0,0,0,0-.24V27.2H119v.93a1.62,1.62,0,0,0,0,.23.57.57,0,0,0,0,.18l.08.17a1.79,1.79,0,0,0,.14.18c.09.11.2.22.33.35s.27.27.44.42l-.2.21-.39-.37-.31-.32-.19-.21a.63.63,0,0,1-.1-.14h0s0,0,0,.07a.61.61,0,0,1-.07.1.64.64,0,0,0-.1.13,1.14,1.14,0,0,1-.11.11l-.13.15a1.53,1.53,0,0,0-.18.18l-.19.19-.2.18-.21-.22.4-.37A3.75,3.75,0,0,0,118.35,29ZM121,31h-.31V28.47h-1v-.28h1V26.91H121Z"/><polyline class="cls-3" points="13.26 24.68 13.26 18.68 61.34 18.68 109.42 18.68 109.42 24.68"/><line class="cls-3" x1="61.34" y1="9.55" x2="61.34" y2="18.68"/><path class="cls-3" d="M45.32,24.68v0Z"/><path class="cls-3" d="M77.37,24.68v0Z"/></g></g></svg>