<svg xmlns="http://www.w3.org/2000/svg" viewBox="0 0 122.69 35.72"><defs><style>.cls-1{fill:#fff;}.cls-2{fill:#eb645b;}.cls-3{fill:none;}</style></defs><g id="레이어_2" data-name="레이어 2"><g id="레이어_1-2" data-name="레이어 1"><rect class="cls-1" x="50.7" y="3.53" width="21.28" height="10.64" rx="4.9"/><path class="cls-2" d="M59.62,7.41v.23h-1V9.23h.67l.24,0,.24,0,0,.23-.5.06h-.93V7.41Zm.67.86h.47V7.1H61v3.24h-.25V8.49h-.47v1.7H60v-3h.25Z"/><path class="cls-2" d="M62.34,9.67V8.88h-.56V8.67h.5V7.59h-.47V7.38H64.1v.21h-.47V8.67h.5v.21h-.56v.79h.88v.22h-3V9.67Zm.19-1h.86V7.59h-.86Zm.06,1h.74V8.88h-.74Z"/><rect class="cls-1" x="37.84" y="21.55" width="21.28" height="10.64" rx="4.9"/><path class="cls-2" d="M45.13,26.49v.22H43.77v.36h.92v.76H42.84v.34h1.94v.21H42.59v-.76h1.85v-.34H42.58v-.21h.94v-.36H42.15v-.22Zm-.45-1.28v1H42.6v-1ZM42.84,26h1.6v-.56h-1.6Z"/><path class="cls-2" d="M48.36,27.09v.21h-.8v1.06h-.25V27.3h-.88v1.06h-.26V27.3h-.79v-.21Zm-.45-1.8v.83H46.06v.39H48v.22H45.82V25.9h1.84v-.39H45.81v-.22Z"/><path class="cls-2" d="M51.59,27.07v.21H50.23v1.08H50V27.28H48.61v-.21Zm-.44-1.83v1.39h-2.1V25.24h.24v.49H50.9v-.49Zm-.25,1.19V26H49.29v.48Z"/><path class="cls-2" d="M52.42,26.79a1.77,1.77,0,0,0,.14-.17,1,1,0,0,0,.07-.15.47.47,0,0,0,0-.16,1.15,1.15,0,0,0,0-.19v-.76h.26v.74a1,1,0,0,0,0,.18.77.77,0,0,0,0,.15.83.83,0,0,0,.07.13.72.72,0,0,0,.11.15,3.2,3.2,0,0,0,.26.28c.11.11.22.22.36.34l-.16.17-.32-.3L53,26.94l-.15-.16a.8.8,0,0,1-.08-.12h0a.15.15,0,0,1,0,.06.33.33,0,0,1-.06.08l-.08.1-.08.09-.11.12a1.85,1.85,0,0,0-.14.14l-.16.15c0,.06-.11.1-.16.15l-.16-.17.32-.3A3.58,3.58,0,0,0,52.42,26.79Zm2.1,1.57h-.25v-2H53.5v-.23h.77v-1h.25Z"/><rect class="cls-1" x="12.12" y="21.55" width="21.28" height="10.64" rx="4.9"/><path class="cls-2" d="M13.34,26.82l.48-.21a2.45,2.45,0,0,0,.33-.18.66.66,0,0,0,.22-.16.79.79,0,0,0,.12-.15.64.64,0,0,0,.06-.18,1.34,1.34,0,0,0,0-.21v-.18H13.45v-.22h1.36v.42a1.4,1.4,0,0,1-.05.38.73.73,0,0,1-.19.29,1.91,1.91,0,0,1-.42.27l-.71.33Zm1.59.28a1.58,1.58,0,0,1,.38,0,1.25,1.25,0,0,1,.31.12.65.65,0,0,1,.21.19.39.39,0,0,1,.08.25v.14a.38.38,0,0,1-.08.25.55.55,0,0,1-.21.19.77.77,0,0,1-.31.12,1.47,1.47,0,0,1-.76,0,.77.77,0,0,1-.31-.12.67.67,0,0,1-.22-.19.43.43,0,0,1-.07-.25V27.7a.43.43,0,0,1,.07-.25.67.67,0,0,1,.22-.19,1.25,1.25,0,0,1,.31-.12A1.58,1.58,0,0,1,14.93,27.1Zm0,1.13a1.18,1.18,0,0,0,.27,0,1.35,1.35,0,0,0,.24-.08.45.45,0,0,0,.17-.13.25.25,0,0,0,.06-.17v-.12a.27.27,0,0,0-.06-.17.43.43,0,0,0-.17-.12.85.85,0,0,0-.24-.08,1.18,1.18,0,0,0-.27,0,1.27,1.27,0,0,0-.28,0,.9.9,0,0,0-.23.08.43.43,0,0,0-.17.12.27.27,0,0,0-.06.17v.12a.25.25,0,0,0,.06.17.45.45,0,0,0,.17.13l.23.08A1.27,1.27,0,0,0,14.93,28.23Zm.72-2.61v-.5h.24V27h-.24v-.51H15V26.3h.7v-.46H15v-.22Z"/><path class="cls-2" d="M18.62,26.74l-.24,0-.24,0h-.56v.52h-.25v-.51h-.84v-.21H17.7l.46,0,.44,0Zm-1.12-.36a.94.94,0,0,1-.3-.05.64.64,0,0,1-.25-.11.52.52,0,0,1-.17-.16.42.42,0,0,1-.06-.21v-.14a.42.42,0,0,1,.06-.21.52.52,0,0,1,.17-.16.83.83,0,0,1,.25-.12,1.36,1.36,0,0,1,.3,0,1.55,1.55,0,0,1,.31,0,.9.9,0,0,1,.24.12.44.44,0,0,1,.17.16.42.42,0,0,1,.06.21v.14a.42.42,0,0,1-.06.21.44.44,0,0,1-.17.16.66.66,0,0,1-.24.11A1.06,1.06,0,0,1,17.5,26.38Zm0-1-.21,0a.45.45,0,0,0-.17.08.4.4,0,0,0-.12.1.24.24,0,0,0,0,.13v.1A.22.22,0,0,0,17,26a.4.4,0,0,0,.12.1.67.67,0,0,0,.17.08l.21,0,.21,0a.67.67,0,0,0,.17-.08A.4.4,0,0,0,18,26a.22.22,0,0,0,0-.13v-.1a.24.24,0,0,0,0-.13.4.4,0,0,0-.12-.1.45.45,0,0,0-.17-.08Zm-.2,2.7h1.89v.22H17.05v-.86h.25Zm1.57-1V25.12h.25v2.52h-.25v-.35h-.73v-.22Z"/><path class="cls-2" d="M21.6,25.64h-.74v.52c0,.06,0,.12,0,.17l0,.14a.42.42,0,0,0,.06.14l.11.14a3.2,3.2,0,0,0,.26.28l.35.33-.16.16-.32-.3L21,27l-.14-.15-.08-.11h0a.16.16,0,0,0,0,.06l-.07.08a.39.39,0,0,1-.08.1l-.08.09-.09.1-.14.13-.15.16-.17.14-.16-.16.32-.3.27-.28a1.55,1.55,0,0,0,.13-.17,1.09,1.09,0,0,0,.08-.15.41.41,0,0,0,0-.16,1,1,0,0,0,0-.18v-.53h-.74v-.22H21.6Zm.77,2.72h-.25V25.12h.25Z"/><path class="cls-2" d="M25.08,26.74l-.24,0-.24,0H24v.52h-.25v-.51H23v-.21h1.21l.45,0,.45,0ZM24,26.38a1.06,1.06,0,0,1-.31-.05.71.71,0,0,1-.25-.11.49.49,0,0,1-.16-.16.42.42,0,0,1-.06-.21v-.14a.42.42,0,0,1,.06-.21.49.49,0,0,1,.16-.16,1,1,0,0,1,.25-.12,1.55,1.55,0,0,1,.31,0,1.36,1.36,0,0,1,.3,0,.83.83,0,0,1,.25.12.52.52,0,0,1,.17.16.42.42,0,0,1,.06.21v.14a.42.42,0,0,1-.06.21.52.52,0,0,1-.17.16.64.64,0,0,1-.25.11A.94.94,0,0,1,24,26.38Zm0-1-.21,0a.49.49,0,0,0-.18.08.36.36,0,0,0-.11.1.27.27,0,0,0-.05.13v.1a.24.24,0,0,0,.05.13.36.36,0,0,0,.11.1.75.75,0,0,0,.18.08l.21,0,.21,0,.17-.08a.4.4,0,0,0,.12-.1.22.22,0,0,0,0-.13v-.1a.24.24,0,0,0,0-.13.4.4,0,0,0-.12-.1.53.53,0,0,0-.17-.08Zm-.21,2.7h1.9v.22H23.5v-.86h.25Zm1.58-1V25.12h.24v2.52h-.24v-.35H24.6v-.22Z"/><path class="cls-2" d="M29.1,27.07v.21H27.73v1.08h-.25V27.28H26.12v-.21Zm-.44-1.83v1.39h-2.1V25.24h.24v.49h1.61v-.49Zm-.25,1.19V26H26.8v.48Z"/><path class="cls-2" d="M29.93,26.79a1.77,1.77,0,0,0,.14-.17,1,1,0,0,0,.07-.15.94.94,0,0,0,0-.16,1.15,1.15,0,0,0,0-.19v-.76h.26v.74a1,1,0,0,0,0,.18.77.77,0,0,0,0,.15.83.83,0,0,0,.07.13.72.72,0,0,0,.11.15,3.2,3.2,0,0,0,.26.28c.11.11.22.22.36.34l-.16.17-.32-.3-.25-.26-.15-.16a.8.8,0,0,1-.08-.12h0a.15.15,0,0,1,0,.06.33.33,0,0,1-.06.08l-.08.1-.08.09-.11.12a1.85,1.85,0,0,0-.14.14l-.16.15c-.05.06-.11.1-.16.15l-.17-.17.33-.3A3.58,3.58,0,0,0,29.93,26.79ZM32,28.36h-.25v-2H31v-.23h.77v-1H32Z"/><rect class="cls-1" x="63.56" y="21.55" width="21.28" height="10.64" rx="4.9"/><path class="cls-2" d="M68,25.44h1.41v.22h-.57v.48a1.28,1.28,0,0,0,0,.21.86.86,0,0,0,0,.17l.07.14a.66.66,0,0,0,.11.16l.21.24.27.29-.16.16-.12-.13-.13-.14a.69.69,0,0,1-.11-.13,1.14,1.14,0,0,0-.11-.11l-.13-.17-.06-.1h0a.88.88,0,0,1,0,.1,1.29,1.29,0,0,1-.13.17l-.22.25a4.22,4.22,0,0,1-.3.3l-.16-.17.15-.15c.06-.05.1-.1.15-.15l.13-.14.1-.12.1-.15a.81.81,0,0,0,.09-.32,1.34,1.34,0,0,0,0-.21v-.48H68Zm1.81.78v-1H70v3h-.25V26.44h-.57v-.22Zm.88,2.14h-.25V25.12h.25Z"/><path class="cls-2" d="M72.46,27.69v-.75h.26v.75h1.36v.21h-3v-.21Zm-1-2.28h2.24v.22h-1v.12a1.55,1.55,0,0,0,0,.23.44.44,0,0,0,.06.16.55.55,0,0,0,.13.14l.2.15.32.19.42.22-.13.19-.38-.21L73,26.6l-.27-.2a.66.66,0,0,1-.12-.12h0a.6.6,0,0,1-.12.13l-.28.19-.36.22-.39.22-.13-.2.42-.22.32-.19.21-.15a.75.75,0,0,0,.12-.14.44.44,0,0,0,.06-.16,1.4,1.4,0,0,0,0-.23v-.12h-1Z"/><path class="cls-2" d="M77.31,27.07v.21H75.94v1.08h-.25V27.28H74.33v-.21Zm-.44-1.83v1.39h-2.1V25.24H75v.49h1.61v-.49Zm-.25,1.19V26H75v.48Z"/><path class="cls-2" d="M78.14,26.79a.86.86,0,0,0,.13-.17.55.55,0,0,0,.08-.15.94.94,0,0,0,0-.16,1.15,1.15,0,0,0,0-.19v-.76h.26v.92l0,.15a.83.83,0,0,0,.07.13.48.48,0,0,0,.11.15,3.2,3.2,0,0,0,.26.28,4,4,0,0,0,.36.34l-.17.17L79,27.2l-.25-.26-.15-.16a.8.8,0,0,1-.08-.12h0a.15.15,0,0,1,0,.06l-.06.08-.08.1-.08.09-.11.12-.14.14-.16.15c-.05.06-.11.1-.16.15l-.17-.17.33-.3A3.58,3.58,0,0,0,78.14,26.79Zm2.1,1.57H80v-2h-.77v-.23H80v-1h.25Z"/><rect class="cls-1" x="89.28" y="21.55" width="21.28" height="10.64" rx="4.9"/><path class="cls-2" d="M91.49,27.69V26.44h.26v1.25h1.59v.21h-3v-.21Zm1-.45c0-.11,0-.21,0-.32s0-.21,0-.32,0-.21,0-.32,0-.22,0-.34v-.3H90.74v-.22h2.15v.8c0,.13,0,.26,0,.37s0,.23,0,.35,0,.22,0,.33Z"/><path class="cls-2" d="M93.66,26.81l.53-.27a1.67,1.67,0,0,0,.3-.22.51.51,0,0,0,.14-.23,1.26,1.26,0,0,0,0-.3v-.24h-.92v-.22H94.9v.49a1.35,1.35,0,0,1-.05.38.61.61,0,0,1-.18.28,1.66,1.66,0,0,1-.34.24c-.15.09-.34.18-.56.29Zm.56.4h2.11v1.18h-.25v-1H94.22Zm1.37-1.31h.5v-.78h.24V27h-.24v-.89h-.5V27h-.25V25.16h.25Z"/><path class="cls-2" d="M98.91,26.92l-.36,0-.44,0-.57,0h-.72v-.22h.71v-.72h.24v.72h.35l.29,0,.25,0,.23,0Zm-.29-1.63v.32a3.44,3.44,0,0,1,0,.46,1.68,1.68,0,0,1-.06.37l-.25,0c0-.13,0-.25.07-.37s0-.25,0-.38v-.15H97v-.22Zm-1,2.81h1.84v.22h-2.1v-1h.26Zm1.75-2h.48v.22h-.48v1.16h-.25v-2.4h.25Z"/><path class="cls-2" d="M100.54,27.33h1a4.08,4.08,0,0,0,.53-.06l0,.22a5.42,5.42,0,0,1-.58.06l-.59,0h-.67V26.32h1.18V25.6h-1.18v-.22h1.42v1.16h-1.17Zm2.18,1h-.25V25.12h.25Z"/><path class="cls-2" d="M106.25,27.07v.21h-1.36v1.08h-.25V27.28h-1.37v-.21Zm-.44-1.83v1.39h-2.1V25.24H104v.49h1.61v-.49Zm-.24,1.19V26H104v.48Z"/><path class="cls-2" d="M107.09,26.79a1.55,1.55,0,0,0,.13-.17,1.09,1.09,0,0,0,.08-.15.94.94,0,0,0,0-.16v-.95h.26v.74c0,.07,0,.13,0,.18a.8.8,0,0,0,0,.15.38.38,0,0,0,.06.13.79.79,0,0,0,.12.15,2.16,2.16,0,0,0,.26.28c.1.11.22.22.35.34l-.16.17-.31-.3-.25-.26-.15-.16a.8.8,0,0,1-.08-.12h0a.16.16,0,0,0,0,.06l-.06.08a.39.39,0,0,0-.08.1l-.09.09-.11.12-.14.14-.15.15-.16.15-.17-.17.32-.3Zm2.1,1.57h-.25v-2h-.77v-.23h.77v-1h.25Z"/><polygon class="cls-1" points="61.59 18.27 61.59 11.19 61.09 11.19 61.09 18.27 22.52 18.27 22.52 23.33 23.02 23.33 23.02 18.77 48.23 18.77 48.23 23.33 48.73 23.33 48.73 18.77 73.95 18.77 73.95 23.33 74.45 23.33 74.45 18.77 99.67 18.77 99.67 23.33 100.17 23.33 100.17 18.27 61.59 18.27"/><rect class="cls-3" width="122.69" height="35.72"/></g></g></svg>